HIERARCHY
ROOT joint_Root
{
	OFFSET 0.0 0.0 0.0
	CHANNELS 6 Xposition Yposition Zposition Zrotation Xrotation Yrotation 
	JOINT Hips
	{
		OFFSET -0.726466 93.3139 -2.00062
		CHANNELS 6 Xposition Yposition Zposition Zrotation Xrotation Yrotation 
		JOINT Spine
		{
			OFFSET 15.7357 0.0 0.0
			CHANNELS 6 Xposition Yposition Zposition Zrotation Xrotation Yrotation 
			JOINT Chest
			{
				OFFSET 8.98455 -0.406207 0.0
				CHANNELS 6 Xposition Yposition Zposition Zrotation Xrotation Yrotation 
				JOINT Neck
				{
					OFFSET 16.3773 0.0 0.0
					CHANNELS 6 Xposition Yposition Zposition Zrotation Xrotation Yrotation 
					JOINT Head
					{
						OFFSET 6.45672 0.0 0.0
						CHANNELS 6 Xposition Yposition Zposition Zrotation Xrotation Yrotation 
						End Site
						{
							OFFSET 0.0 0.0 0.0
						}
					}
				}
				JOINT Shoulder_L
				{
					OFFSET 12.9942 -0.242716 4.98039
					CHANNELS 6 Xposition Yposition Zposition Zrotation Xrotation Yrotation 
					JOINT UpperArm_L
					{
						OFFSET 5.34809 0.0 0.0
						CHANNELS 6 Xposition Yposition Zposition Zrotation Xrotation Yrotation 
						JOINT LowerArm_L
						{
							OFFSET 24.3286 1.87007e-05 0.0
							CHANNELS 6 Xposition Yposition Zposition Zrotation Xrotation Yrotation 
							JOINT Hand_L
							{
								OFFSET 22.2916 0.0 0.0
								CHANNELS 6 Xposition Yposition Zposition Zrotation Xrotation Yrotation 
								End Site
								{
									OFFSET 0.0 0.0 0.0
								}
							}
						}
					}
				}
				JOINT Shoulder_R
				{
					OFFSET 12.9945 -0.242716 -4.98039
					CHANNELS 6 Xposition Yposition Zposition Zrotation Xrotation Yrotation 
					JOINT UpperArm_R
					{
						OFFSET -5.34813 0.0 0.0
						CHANNELS 6 Xposition Yposition Zposition Zrotation Xrotation Yrotation 
						JOINT LowerArm_R
						{
							OFFSET -24.3289 0.000322201 0.0
							CHANNELS 6 Xposition Yposition Zposition Zrotation Xrotation Yrotation 
							JOINT Hand_R
							{
								OFFSET -22.2915 -0.000108084 0.0
								CHANNELS 6 Xposition Yposition Zposition Zrotation Xrotation Yrotation 
								End Site
								{
									OFFSET 0.0 0.0 0.0
								}
							}
						}
					}
				}
			}
		}
		JOINT UpperLeg_L
		{
			OFFSET -2.19248 -6.46944 0.0
			CHANNELS 6 Xposition Yposition Zposition Zrotation Xrotation Yrotation 
			JOINT LowerLeg_L
			{
				OFFSET 39.0811 0.0 -1.23785e-05
				CHANNELS 6 Xposition Yposition Zposition Zrotation Xrotation Yrotation 
				JOINT Foot_L
				{
					OFFSET 40.9854 0.0 -1.26872e-05
					CHANNELS 6 Xposition Yposition Zposition Zrotation Xrotation Yrotation 
					JOINT Toes_L
					{
						OFFSET 11.7543 0.0 0.0
						CHANNELS 6 Xposition Yposition Zposition Zrotation Xrotation Yrotation 
						End Site
						{
							OFFSET 0.0 0.0 0.0
						}
					}
				}
			}
		}
		JOINT UpperLeg_R
		{
			OFFSET -2.19251 6.46944 0.0
			CHANNELS 6 Xposition Yposition Zposition Zrotation Xrotation Yrotation 
			JOINT LowerLeg_R
			{
				OFFSET -39.0811 -0.00228153 -0.0401928
				CHANNELS 6 Xposition Yposition Zposition Zrotation Xrotation Yrotation 
				JOINT Foot_R
				{
					OFFSET -40.9854 0.0 0.0
					CHANNELS 6 Xposition Yposition Zposition Zrotation Xrotation Yrotation 
					JOINT Toes_R
					{
						OFFSET -11.7543 0.0 0.0
						CHANNELS 6 Xposition Yposition Zposition Zrotation Xrotation Yrotation 
						End Site
						{
							OFFSET 0.0 0.0 0.0
						}
					}
				}
			}
		}
	}
}
MOTION
Frames:	4
Frame Time:	0.0333333
0.000000 0.000000 0.000000 0.000000 0.000000 -0.000000 -0.511129 92.200000 -0.596932 88.234600 0.067160 6.545190 15.735700 0.000005 -0.000001 80.750200 86.191600 -80.047500 8.984550 -0.406207 -0.000000 -0.240042 -1.273110 1.401910 16.377300 -0.000001 -0.000001 5.905180 -1.942730 0.272900 6.456720 -0.000001 -0.000000 7.961350 -2.524730 -1.167010 12.994200 -0.242716 4.980390 -86.449200 -9.408400 -69.213300 5.348090 -0.000007 -0.000001 -86.548900 -26.141900 -99.503100 24.328600 0.000019 0.000005 9.431050 1.245570 -82.544400 22.291600 -0.000001 0.000005 19.836700 5.539370 -8.213970 12.994500 -0.242716 -4.980390 91.582400 -4.601330 -70.998400 -5.348130 -0.000001 -0.000004 -78.429000 -27.966000 -106.647000 -24.328900 0.000322 -0.000009 11.838500 3.380600 -74.289900 -22.291500 -0.000108 -0.000004 21.638800 5.381080 -2.332330 -2.192480 -6.469440 -0.000000 -175.202000 -8.275900 -0.567065 39.081100 -0.000007 -0.000012 -0.110797 0.254275 23.544600 40.985400 -0.000006 -0.000013 0.148663 4.537210 -66.594000 11.754300 -0.000000 0.000003 -0.000045 -0.000515 -16.597600 -2.192510 6.469440 -0.000001 178.716000 15.425500 -177.660000 -39.081100 -0.002282 -0.040193 -0.045264 0.132067 20.197800 -40.985400 0.000008 0.000006 3.151090 7.349760 -66.289300 -11.754300 -0.000006 -0.000006 -0.008378 -0.091090 -20.282700
0.000000 0.000000 0.000000 0.000000 0.000000 -0.000000 -0.519668 92.205300 -0.678677 88.230200 0.014269 6.522340 15.735700 0.000005 -0.000001 80.768000 86.176400 -80.051600 8.984550 -0.406207 -0.000000 -0.209345 -1.276430 1.429680 16.377300 -0.000001 -0.000001 6.022170 -2.059970 0.252934 6.456720 -0.000001 -0.000000 7.858120 -2.754730 -1.264690 12.994200 -0.242716 4.980390 -86.463900 -9.367790 -69.210900 5.348090 -0.000007 -0.000001 -86.430500 -26.160000 -99.456700 24.328600 0.000019 0.000005 9.161530 1.217640 -82.493800 22.291600 -0.000001 0.000005 19.756800 5.540630 -8.271410 12.994500 -0.242716 -4.980390 91.579600 -4.589710 -70.985000 -5.348130 -0.000001 -0.000004 -78.301300 -27.951200 -106.550000 -24.328900 0.000322 -0.000009 11.819300 3.393420 -74.208300 -22.291500 -0.000108 -0.000004 21.638400 5.380580 -2.316710 -2.192480 -6.469440 -0.000000 -175.193000 -8.330660 -0.651437 39.081100 -0.000007 -0.000012 -0.111013 0.254624 23.556600 40.985400 -0.000006 -0.000013 0.146565 4.549680 -66.540300 11.754300 -0.000000 0.000003 -0.000042 -0.000485 -16.596400 -2.192510 6.469440 -0.000001 178.749000 15.377200 -177.755000 -39.081100 -0.002282 -0.040193 -0.046662 0.135791 20.207900 -40.985400 0.000008 0.000006 3.117990 7.372270 -66.227200 -11.754300 -0.000006 -0.000006 -0.008289 -0.090375 -20.253500
0.000000 0.000000 0.000000 0.000000 0.000000 -0.000000 -0.533543 92.216800 -0.754631 88.218200 -0.029162 6.469060 15.735700 0.000005 -0.000001 80.686600 86.169100 -79.958500 8.984550 -0.406207 -0.000000 -0.196585 -1.290220 1.453150 16.377300 -0.000001 -0.000001 6.054690 -2.325370 0.333313 6.456720 -0.000001 -0.000000 7.841810 -3.154600 -1.533330 12.994200 -0.242716 4.980390 -86.503200 -9.246170 -69.177500 5.348090 -0.000007 -0.000001 -86.105200 -26.239700 -99.361200 24.328600 0.000019 0.000005 9.163670 1.227560 -82.435100 22.291600 -0.000001 0.000005 19.799500 5.540890 -8.283280 12.994500 -0.242716 -4.980390 91.563200 -4.534840 -70.957400 -5.348130 -0.000001 -0.000004 -77.932700 -28.005300 -106.266000 -24.328900 0.000322 -0.000009 11.742800 3.376250 -74.184100 -22.291500 -0.000108 -0.000004 21.827200 5.384270 -2.433170 -2.192480 -6.469440 -0.000000 -175.209000 -8.240560 -0.740624 39.081100 -0.000007 -0.000012 -0.110951 0.254863 23.525300 40.985400 -0.000006 -0.000013 0.111367 4.414530 -66.473200 11.754300 -0.000000 0.000003 -0.000050 -0.000567 -16.599600 -2.192510 6.469440 -0.000001 178.808000 15.332400 -177.864000 -39.081100 -0.002282 -0.040193 -0.045360 0.132399 20.187800 -40.985400 0.000008 0.000006 3.201200 7.376220 -66.171100 -11.754300 -0.000006 -0.000006 -0.008392 -0.091201 -20.287300
0.000000 0.000000 0.000000 0.000000 0.000000 -0.000000 -0.545667 92.231400 -0.834685 88.239800 -0.004242 6.383370 15.735700 0.000005 -0.000001 80.283800 86.171500 -79.555000 8.984550 -0.406207 -0.000000 -0.209789 -1.342670 1.454360 16.377300 -0.000001 -0.000001 6.077550 -2.654060 0.358388 6.456720 -0.000001 -0.000000 7.838360 -3.648850 -1.746430 12.994200 -0.242716 4.980390 -86.550700 -9.111980 -69.162800 5.348090 -0.000007 -0.000001 -85.736500 -26.389400 -98.989100 24.328600 0.000019 0.000005 9.344700 1.205720 -82.713100 22.291600 -0.000001 0.000005 19.582700 5.541620 -8.316740 12.994500 -0.242716 -4.980390 91.526500 -4.420390 -70.927100 -5.348130 -0.000001 -0.000004 -77.182400 -28.208300 -105.644000 -24.328900 0.000322 -0.000009 11.288200 3.200820 -74.374600 -22.291500 -0.000108 -0.000004 22.053300 5.385290 -2.465600 -2.192480 -6.469440 -0.000000 -175.243000 -8.216000 -0.867360 39.081100 -0.000007 -0.000012 -0.111205 0.256241 23.460300 40.985400 -0.000006 -0.000013 0.099077 4.412550 -66.369200 11.754300 -0.000000 0.000003 -0.000044 -0.000504 -16.597200 -2.192510 6.469440 -0.000001 178.836000 15.396100 -177.985000 -39.081100 -0.002282 -0.040193 -0.044074 0.129341 20.124700 -40.985400 0.000008 0.000006 3.084310 7.372530 -66.060600 -11.754300 -0.000006 -0.000006 -0.008539 -0.092379 -20.335400
